<svg width="170" height="270" viewBox="0 0 170 270" fill="none" xmlns="http://www.w3.org/2000/svg">
<path d="M9 147.4V128C22.8 128 29.4 121.6 29.4 110.2V69C29.4 54.4 39.6 44.8 55 44.8H68.8V63.8H59.8C54.8 63.8 51.6 67 51.6 73.2V113C51.6 126.4 45.8 134 34.2 137.8C45.8 141.4 51.6 149 51.6 162.4V202.2C51.6 208.4 54.8 211.8 59.8 211.8H68.8V230.6H55C39.6 230.6 29.4 221.2 29.4 206.4V165.4C29.4 153.8 22.8 147.4 9 147.4Z" fill="white"/>
<path d="M161 147.4V128C147.2 128 140.6 121.6 140.6 110.2V69C140.6 54.4 130.4 44.8 115 44.8H101.2V63.8H110.2C115.2 63.8 118.4 67 118.4 73.2V113C118.4 126.4 124.2 134 135.8 137.8C124.2 141.4 118.4 149 118.4 162.4V202.2C118.4 208.4 115.2 211.8 110.2 211.8H101.2V230.6H115C130.4 230.6 140.6 221.2 140.6 206.4V165.4C140.6 153.8 147.2 147.4 161 147.4Z" fill="white"/>
</svg>
