<svg width="51" height="29" viewBox="0 0 51 29" fill="none" xmlns="http://www.w3.org/2000/svg">
<path fill-rule="evenodd" clip-rule="evenodd" d="M15.0896 13.4292C15.1558 13.665 15.3185 13.8604 15.5355 13.9646L24.379 18.2106C24.4898 18.2638 24.6091 18.2906 24.7283 18.2907C24.8416 18.2909 24.9549 18.2671 25.0606 18.2192L33.6545 14.3262C33.8844 14.2221 34.0543 14.0154 34.1153 13.7653C34.1764 13.5152 34.122 13.2494 33.9677 13.044L24.4254 0.345051C24.2624 0.128263 24.0082 0.00467887 23.7418 0.013825C23.4758 0.0228916 23.2315 0.163296 23.0861 0.39061L15.1911 12.7365C15.0605 12.9406 15.0235 13.1934 15.0896 13.4292Z" fill="#277CE0"/>
<path fill-rule="evenodd" clip-rule="evenodd" d="M24.9511 20.7756C24.9466 20.4555 24.7657 20.1644 24.4841 20.024L1.21718 8.42486C0.894493 8.26397 0.508723 8.3346 0.263045 8.59964C0.0175245 8.86468 -0.0314486 9.26321 0.141963 9.5854L10.1095 28.1031C10.2602 28.383 10.5429 28.5428 10.8346 28.5433C10.9599 28.5435 11.0869 28.5142 11.2058 28.4524L24.5052 21.5337C24.7829 21.3892 24.9555 21.0956 24.9511 20.7756Z" fill="#C4C4C4"/>
<path fill-rule="evenodd" clip-rule="evenodd" d="M49.7817 8.45974C49.5347 8.19057 49.1473 8.11526 48.8245 8.27367L10.6901 26.9781C10.3449 27.1474 10.1614 27.5388 10.2476 27.9226C10.3337 28.3065 10.6667 28.5789 11.0504 28.5814L38.9217 28.7581L38.9257 28.7581C39.2229 28.7585 39.4963 28.5974 39.6406 28.3319L49.9037 9.45029C50.078 9.12974 50.0286 8.72882 49.7817 8.45974Z" fill="#277CE0"/>
</svg>
